HIERARCHY
ROOT Hips
{
	OFFSET 0.000000 0.000000 0.000000
	CHANNELS 6 Xposition Yposition Zposition Xrotation Yrotation Zrotation
	JOINT LeftUpLeg_virtual
	{
		OFFSET 0.000000 0.000000 0.000000
		CHANNELS 3 Xrotation Yrotation Zrotation
		JOINT LeftUpLeg
		{
			OFFSET 13.026900 -6.336304 -1.092800
			CHANNELS 3 Xrotation Yrotation Zrotation
			JOINT LeftLeg
			{
				OFFSET 0.524474 -46.096886 9.782700
				CHANNELS 3 Xrotation Yrotation Zrotation
				JOINT LeftFoot
				{
					OFFSET -0.524474 -53.427422 -12.948200
					CHANNELS 3 Xrotation Yrotation Zrotation
					JOINT LeftToeBase
					{
						OFFSET 0.192200 -14.009700 16.364100
						CHANNELS 3 Xrotation Yrotation Zrotation
						JOINT LeftToe_End
						{
							OFFSET -1.784700 -0.561700 9.474800
							CHANNELS 3 Xrotation Yrotation Zrotation
							End Site
							{
								OFFSET 0 0 0
							}
						}
					}
				}
			}
		}
	}
	JOINT RightUpLeg_virtual
	{
		OFFSET 0.000000 0.000000 0.000000
		CHANNELS 3 Xrotation Yrotation Zrotation
		JOINT RightUpLeg
		{
			OFFSET -12.883000 -6.336304 -1.092800
			CHANNELS 3 Xrotation Yrotation Zrotation
			JOINT RightLeg
			{
				OFFSET -0.524587 -46.096825 9.782800
				CHANNELS 3 Xrotation Yrotation Zrotation
				JOINT RightFoot
				{
					OFFSET 0.524587 -53.427383 -12.948300
					CHANNELS 3 Xrotation Yrotation Zrotation
					JOINT RightToeBase
					{
						OFFSET -0.192200 -14.009700 16.364100
						CHANNELS 3 Xrotation Yrotation Zrotation
						JOINT RightToe_End
						{
							OFFSET 1.784700 -0.561700 9.474800
							CHANNELS 3 Xrotation Yrotation Zrotation
							End Site
							{
								OFFSET 0 0 0
							}
						}
					}
				}
			}
		}
	}
	JOINT Spine_virtual
	{
		OFFSET 0.000000 0.000000 0.000000
		CHANNELS 3 Xrotation Yrotation Zrotation
		JOINT Spine
		{
			OFFSET 0.072000 7.257294 -0.789700
			CHANNELS 3 Xrotation Yrotation Zrotation
			JOINT Spine1
			{
				OFFSET 0.000000 12.508769 -0.658067
				CHANNELS 3 Xrotation Yrotation Zrotation
				JOINT Spine1_split
				{
					OFFSET 0.000000 12.508769 -0.658067
					CHANNELS 3 Xrotation Yrotation Zrotation
					JOINT Spine2
					{
						OFFSET 0.000000 12.508769 -0.658067
						CHANNELS 3 Xrotation Yrotation Zrotation
						JOINT Neck_virtual
						{
							OFFSET 0.000000 0.000000 0.000000
							CHANNELS 3 Xrotation Yrotation Zrotation
							JOINT Neck
							{
								OFFSET 0.000000 14.033295 7.520400
								CHANNELS 3 Xrotation Yrotation Zrotation
								JOINT Head
								{
									OFFSET 0.000000 8.198502 5.703100
									CHANNELS 3 Xrotation Yrotation Zrotation
									JOINT HeadTop_End
									{
										OFFSET 0.000000 17.760803 13.332701
										CHANNELS 3 Xrotation Yrotation Zrotation
										End Site
										{
											OFFSET 0 0 0
										}
									}
								}
							}
						}
						JOINT LeftShoulder_virtual
						{
							OFFSET 0.000000 0.000000 0.000000
							CHANNELS 3 Xrotation Yrotation Zrotation
							JOINT LeftShoulder
							{
								OFFSET 6.292450 5.785301 -0.669000
								CHANNELS 3 Xrotation Yrotation Zrotation
								JOINT LeftShoulder_split
								{
									OFFSET 6.292450 5.785301 -0.669000
									CHANNELS 3 Xrotation Yrotation Zrotation
									JOINT LeftArm
									{
										OFFSET 13.907140 -6.093903 1.965100
										CHANNELS 3 Xrotation Yrotation Zrotation
										JOINT LeftForeArm
										{
											OFFSET 34.140198 0.000000 0.000000
											CHANNELS 3 Xrotation Yrotation Zrotation
											JOINT LeftHand
											{
												OFFSET 40.960209 0.000000 0.000000
												CHANNELS 3 Xrotation Yrotation Zrotation
												End Site
												{
													OFFSET 0 0 0
												}
											}
										}
									}
								}
							}
						}
						JOINT RightShoulder_virtual
						{
							OFFSET 0.000000 0.000000 0.000000
							CHANNELS 3 Xrotation Yrotation Zrotation
							JOINT RightShoulder
							{
								OFFSET -6.292450 5.785301 -0.669000
								CHANNELS 3 Xrotation Yrotation Zrotation
								JOINT RightShoulder_split
								{
									OFFSET -6.292450 5.785301 -0.669000
									CHANNELS 3 Xrotation Yrotation Zrotation
									JOINT RightArm
									{
										OFFSET -13.907140 -6.093903 1.965100
										CHANNELS 3 Xrotation Yrotation Zrotation
										JOINT RightForeArm
										{
											OFFSET -34.140198 0.000000 0.000000
											CHANNELS 3 Xrotation Yrotation Zrotation
											JOINT RightHand
											{
												OFFSET -40.960209 0.000000 0.000000
												CHANNELS 3 Xrotation Yrotation Zrotation
												End Site
												{
													OFFSET 0 0 0
												}
											}
										}
									}
								}
							}
						}
					}
				}
			}
		}
	}
}
MOTION
Frames: 6
Frame Time: 0.03333333
0.737601 108.373268 3.153816 0.000000 0.000000 0.000000 -179.552955 49.210827 177.534034 -25.241089 -5.461482 11.665506 21.770045 -5.718526 2.268689 2.165240 -1.512424 -10.832420 -6.490464 2.144950 -1.008831 0.000000 0.000000 0.000000 177.018668 44.494403 -179.693357 -13.812307 -2.252792 -11.346823 42.107474 -3.879567 -1.972923 -15.089882 -6.101473 16.293387 3.606007 -0.297584 -0.547782 0.000000 0.000000 0.000000 179.943137 51.233911 178.190292 7.046795 0.935196 8.841039 16.205078 0.481460 -0.717078 6.677736 10.368723 -0.717071 0.000000 0.000000 0.000000 17.059028 0.137111 -2.145271 -29.060423 -3.793174 -3.048084 -3.105159 -5.080140 6.484102 0.000000 0.000000 0.000000 19.280461 -0.321581 -1.612886 4.712763 -13.263710 -14.467720 -14.874624 -14.410610 -3.258856 22.450664 2.798722 -28.956406 45.242917 -74.607024 32.580996 0.000000 0.000000 0.000000 18.478667 0.998403 -1.186866 -0.503755 6.337208 -5.114369 10.518075 3.225207 -1.330765 -20.065277 -20.878106 67.488157 6.469218 58.389402 -8.475788 0.000000 0.000000 0.000000 
0.795074 107.368309 2.878902 0.000000 0.000000 0.000000 179.865505 49.968643 176.844526 -25.321424 -3.920594 12.188888 24.765974 -5.897274 2.582558 2.319221 -1.689588 -10.489541 -6.488192 2.117202 -1.020469 0.000000 0.000000 0.000000 176.142232 44.907947 179.863538 -16.417137 -2.197220 -11.155862 42.514321 -4.121899 -1.216643 -14.214562 -5.532522 14.857934 4.467684 -0.197933 -0.218945 0.000000 0.000000 0.000000 178.252474 51.223782 177.983009 7.773026 0.438216 8.826601 16.203295 0.261573 -0.796710 5.427269 10.069341 -2.753944 0.000000 0.000000 0.000000 16.256619 -0.128504 -1.934988 -26.968251 -4.193849 -3.790413 -1.720500 -4.861842 6.125907 0.000000 0.000000 0.000000 18.961324 -0.630846 -1.912766 4.342295 -14.762113 -14.089336 -11.700082 -12.617262 -3.046862 20.314081 2.847693 -28.247123 40.747614 -72.968345 27.971920 0.000000 0.000000 0.000000 18.787709 1.018334 -1.346426 -0.513783 8.020665 -4.204518 11.299477 0.478915 -0.464250 -21.006257 -20.774758 66.823361 5.646720 57.450743 -7.333645 0.000000 0.000000 0.000000 
0.575845 105.106079 2.069626 0.000000 0.000000 0.000000 176.623146 52.815319 178.200838 -26.445985 -1.996117 13.714923 29.992074 -5.524806 3.097935 0.629426 -0.798156 -10.682763 -7.137009 2.304880 -1.259290 0.000000 0.000000 0.000000 173.282405 47.294470 -179.295293 -23.251648 -0.672158 -10.559560 45.119103 -3.198247 -0.227059 -9.610901 -3.900419 15.496697 3.271162 -0.026753 -0.254785 0.000000 0.000000 0.000000 174.294488 53.060963 179.366013 8.362541 -0.030061 8.556223 15.619789 0.085680 -0.721202 4.856839 8.364137 -2.338771 0.000000 0.000000 0.000000 14.788690 -0.457649 -1.549968 -23.707645 -4.822469 -4.031208 0.067706 -6.828439 7.163121 0.000000 0.000000 0.000000 18.031003 -0.916051 -2.158188 3.525126 -16.453050 -13.086486 -9.665206 -10.014803 -3.590824 20.075756 0.453600 -24.318439 35.911195 -69.832503 22.397230 0.000000 0.000000 0.000000 18.640773 1.054963 -1.299728 -0.560908 9.511833 -3.469916 10.480755 -2.285798 0.355167 -21.474123 -16.835279 64.194858 4.440499 52.236235 -5.215602 0.000000 0.000000 0.000000 
-0.083903 102.210182 0.750309 0.000000 0.000000 0.000000 170.663601 57.140912 -178.088522 -28.522250 0.263229 16.044767 36.378219 -4.513976 3.494726 -3.579669 1.052783 -11.568418 -8.617626 2.620231 -1.462004 0.000000 0.000000 0.000000 168.241711 51.026759 -176.281158 -32.512039 2.046026 -8.970978 49.209215 -1.740149 0.573470 -4.201787 -1.705810 16.361771 0.962740 0.179166 -0.476723 0.000000 0.000000 0.000000 167.971646 55.951243 -176.923934 8.867746 -0.324981 7.960750 14.694042 0.013626 -0.610226 3.870057 6.359294 -0.525056 0.000000 0.000000 0.000000 13.114317 -0.697234 -1.188724 -20.381170 -5.573437 -3.513043 0.983387 -10.100978 9.131365 0.000000 0.000000 0.000000 16.814855 -1.028125 -2.357960 2.429365 -18.057162 -11.594138 -7.941084 -6.775498 -4.178749 21.650701 -1.827432 -18.790245 33.988883 -67.579381 19.270528 0.000000 0.000000 0.000000 18.061337 1.039077 -1.142869 -0.629082 10.066729 -3.508806 8.569896 -3.536804 0.949459 -20.486842 -10.704254 61.374728 3.892267 44.955718 -3.239155 0.000000 0.000000 0.000000 
-0.724677 98.945099 -0.964737 0.000000 0.000000 0.000000 161.824749 61.192710 -171.296595 -31.694765 2.234137 18.937809 42.663735 -3.369713 3.546303 -9.400573 3.274386 -13.622330 -9.871152 2.906432 -1.623114 0.000000 0.000000 0.000000 161.225468 55.375759 -171.156700 -42.922446 5.208098 -6.343752 53.720903 -0.849014 1.174313 -0.325907 0.034051 14.977517 0.430576 0.398146 -0.554787 0.000000 0.000000 0.000000 159.025437 59.348156 -170.127417 9.234026 -0.331143 6.965169 13.723013 0.022217 -0.567275 2.688781 5.014977 1.776577 0.000000 0.000000 0.000000 11.891403 -0.791915 -0.996830 -18.483918 -6.235511 -2.583639 -0.228489 -14.139070 11.421753 0.000000 0.000000 0.000000 15.596334 -0.932974 -2.532974 1.286465 -19.277908 -9.786018 -6.528838 -3.140141 -4.297649 23.317518 -1.293334 -14.189702 34.931169 -68.011308 19.007038 0.000000 0.000000 0.000000 17.356776 0.962173 -1.045925 -0.786609 9.322146 -4.626278 6.112475 -2.803713 1.444464 -18.259399 -5.783425 59.374425 4.011616 37.542121 -1.676113 0.000000 0.000000 0.000000 
-1.270595 95.642342 -1.748173 0.000000 0.000000 0.000000 151.001412 63.516982 -161.835540 -36.726474 2.763578 22.405734 48.825682 -2.995311 2.975227 -14.297713 5.277583 -18.028230 -10.050268 3.116852 -1.711386 0.000000 0.000000 0.000000 152.328013 59.090255 -163.395269 -53.294207 8.081605 -3.628507 57.801104 -0.808734 1.896134 1.780278 1.255692 11.256337 1.892715 0.587932 -0.418741 0.000000 0.000000 0.000000 147.779175 62.313844 -160.211185 9.594374 -0.077857 5.755367 12.926153 0.062658 -0.703338 1.327510 2.793322 3.577060 0.000000 0.000000 0.000000 11.585342 -0.725314 -1.060419 -18.913755 -6.736367 -1.649817 -4.198183 -18.001665 13.085562 0.000000 0.000000 0.000000 14.798908 -0.744929 -2.764699 0.330373 -19.554316 -7.729273 -5.559730 0.581950 -4.788035 23.350682 2.885780 -12.473234 39.815686 -72.089238 23.078311 0.000000 0.000000 0.000000 16.858001 0.760132 -1.136257 -1.188880 7.126858 -6.756093 2.754733 -0.486343 2.439477 -15.572478 -5.468696 58.849545 4.617338 31.357856 -0.737480 0.000000 0.000000 0.000000 
